# Exported from ProBuilder
# http://www.procore3d.com/probuilder
# 11/29/2018 7:50:38 PM

mtllib ./Confiance.mtl
o Confiance

g Cube (2)
v -2 -38 121.5
v -4 -38 121.5
v -2 -30 121.5
v -4 -30 121.5
v -4 -38 121.5
v -4 -38 119.5
v -4 -30 121.5
v -4 -30 119.5
v -4 -38 119.5
v -2 -38 119.5
v -4 -30 119.5
v -2 -30 119.5
v -2 -38 119.5
v -2 -38 121.5
v -2 -30 119.5
v -2 -30 121.5
v -2 -30 121.5
v -4 -30 121.5
v -2 -30 119.5
v -4 -30 119.5
v -2 -38 119.5
v -4 -38 119.5
v -2 -38 121.5
v -4 -38 121.5

vn 0 0 1
vn 0 0 1
vn 0 0 1
vn 0 0 1
vn -1 0 0
vn -1 0 0
vn -1 0 0
vn -1 0 0
vn 0 0 -1
vn 0 0 -1
vn 0 0 -1
vn 0 0 -1
vn 1 0 0
vn 1 0 0
vn 1 0 0
vn 1 0 0
vn 0 1 0
vn 0 1 0
vn 0 1 0
vn 0 1 0
vn 0 -1 0
vn 0 -1 0
vn 0 -1 0
vn 0 -1 0

vt 1 -4
vt -1 -4
vt 1 4
vt -1 4
vt 1 -4
vt -1 -4
vt 1 4
vt -1 4
vt 1 -4
vt -1 -4
vt 1 4
vt -1 4
vt 1 -4
vt -1 -4
vt 1 4
vt -1 4
vt -1 1
vt 1 1
vt -1 -1
vt 1 -1
vt 1 -1
vt -1 -1
vt 1 1
vt -1 1

g Cube (2)
usemtl Default_Prototype
f 3/3/3 4/4/4 2/2/2 1/1/1
f 7/7/7 8/8/8 6/6/6 5/5/5
f 11/11/11 12/12/12 10/10/10 9/9/9
f 15/15/15 16/16/16 14/14/14 13/13/13
f 19/19/19 20/20/20 18/18/18 17/17/17
f 23/23/23 24/24/24 22/22/22 21/21/21

g Cube (3)
v -2 -38 111.5
v -4 -38 111.5
v -2 -30 111.5
v -4 -30 111.5
v -4 -38 111.5
v -4 -38 109.5
v -4 -30 111.5
v -4 -30 109.5
v -4 -38 109.5
v -2 -38 109.5
v -4 -30 109.5
v -2 -30 109.5
v -2 -38 109.5
v -2 -38 111.5
v -2 -30 109.5
v -2 -30 111.5
v -2 -30 111.5
v -4 -30 111.5
v -2 -30 109.5
v -4 -30 109.5
v -2 -38 109.5
v -4 -38 109.5
v -2 -38 111.5
v -4 -38 111.5

vn 0 0 1
vn 0 0 1
vn 0 0 1
vn 0 0 1
vn -1 0 0
vn -1 0 0
vn -1 0 0
vn -1 0 0
vn 0 0 -1
vn 0 0 -1
vn 0 0 -1
vn 0 0 -1
vn 1 0 0
vn 1 0 0
vn 1 0 0
vn 1 0 0
vn 0 1 0
vn 0 1 0
vn 0 1 0
vn 0 1 0
vn 0 -1 0
vn 0 -1 0
vn 0 -1 0
vn 0 -1 0

vt 1 -4
vt -1 -4
vt 1 4
vt -1 4
vt 1 -4
vt -1 -4
vt 1 4
vt -1 4
vt 1 -4
vt -1 -4
vt 1 4
vt -1 4
vt 1 -4
vt -1 -4
vt 1 4
vt -1 4
vt -1 1
vt 1 1
vt -1 -1
vt 1 -1
vt 1 -1
vt -1 -1
vt 1 1
vt -1 1

g Cube (3)
usemtl Default_Prototype
f 27/27/27 28/28/28 26/26/26 25/25/25
f 31/31/31 32/32/32 30/30/30 29/29/29
f 35/35/35 36/36/36 34/34/34 33/33/33
f 39/39/39 40/40/40 38/38/38 37/37/37
f 43/43/43 44/44/44 42/42/42 41/41/41
f 47/47/47 48/48/48 46/46/46 45/45/45

g Wall (1)
v -2 -30 130.5
v -15 -30 130.5
v -2 -27.94873 130.5
v -15 -27.94873 130.5
v -15 -30 130.5
v -30 -30 102.5
v -15 -27.94873 130.5
v -30 -27.94873 102.5
v -30 -30 102.5
v -2 -30 102.5
v -30 -27.94873 102.5
v -2 -27.94873 102.5
v -2 -30 102.5
v -2 -30 130.5
v -2 -27.94873 102.5
v -2 -27.94873 130.5
v -2 -27.94873 130.5
v -15 -27.94873 130.5
v -2 -27.94873 102.5
v -30 -27.94873 102.5
v -2 -30 102.5
v -30 -30 102.5
v -2 -30 130.5
v -15 -30 130.5

vn 0 0 1
vn 0 0 1
vn 0 0 1
vn 0 0 1
vn -0.88148 0 0.4722214
vn -0.88148 0 0.4722214
vn -0.88148 0 0.4722214
vn -0.88148 0 0.4722214
vn 0 0 -1
vn 0 0 -1
vn 0 0 -1
vn 0 0 -1
vn 1 0 0
vn 1 0 0
vn 1 0 0
vn 1 0 0
vn 0 1 0
vn 0 1 0
vn 0 0.9999999 0
vn 0 1 0
vn 0 -1 0
vn 0 -0.9999999 0
vn 0 -1 0
vn 0 -1 0

vt 14 -1.025637
vt 0.9999981 -1.025637
vt 14 1.025637
vt 0.9999981 1.025637
vt 12.81294 -1.025637
vt -18.95182 -1.025637
vt 12.81294 1.025637
vt -18.95182 1.025637
vt 14 -1.025637
vt -14 -1.025637
vt 14 1.025637
vt -14 1.025637
vt 14 -1.025637
vt -14 -1.025637
vt 14 1.025637
vt -14 1.025637
vt -14 14
vt -0.9999981 14
vt -14 -14
vt 14 -14
vt 14 -14
vt -14 -14
vt 14 14
vt 0.9999981 14

g Wall (1)
usemtl Default_Prototype
f 51/51/51 52/52/52 50/50/50 49/49/49
f 55/55/55 56/56/56 54/54/54 53/53/53
f 59/59/59 60/60/60 58/58/58 57/57/57
f 63/63/63 64/64/64 62/62/62 61/61/61
f 67/67/67 68/68/68 66/66/66 65/65/65
f 71/71/71 72/72/72 70/70/70 69/69/69

g Wall (2)
v -2 -30 102.5
v -30 -30 102.5
v -2 4 111.5
v -30 4 111.5
v -30 -30 102.5
v -30 -30 99.5
v -30 4 111.5
v -30 4 108.5
v -30 -30 99.5
v -2 -30 99.5
v -30 4 108.5
v -2 4 108.5
v -2 -30 99.5
v -2 -30 102.5
v -2 4 108.5
v -2 4 111.5
v -2 4 111.5
v -30 4 111.5
v -2 4 108.5
v -30 4 108.5
v -2 -30 99.5
v -30 -30 99.5
v -2 -30 102.5
v -30 -30 102.5

vn 0 -0.2558926 0.9667053
vn 0 -0.2558926 0.9667053
vn 0 -0.2558926 0.9667053
vn 0 -0.2558926 0.9667053
vn -1 0 0
vn -1 0 0
vn -1 0 0
vn -1 0 0
vn 0 0.2558926 -0.9667053
vn 0 0.2558926 -0.9667053
vn 0 0.2558926 -0.9667053
vn 0 0.2558926 -0.9667053
vn 1 0 0
vn 1 0 0
vn 1 0 0
vn 1 0 0
vn 0 1 0
vn 0 1 0
vn 0 1 0
vn 0 1 0
vn 0 -1 0
vn 0 -1 0
vn 0 -1 0
vn 0 -1 0

vt 14 -17.20167
vt -14 -17.20167
vt 14 17.96935
vt -14 17.96935
vt -3 -17
vt -6 -17
vt 6 17
vt 3 17
vt 14 -17.96935
vt -14 -17.96935
vt 14 17.20167
vt -14 17.20167
vt 6 -17
vt 3 -17
vt -3 17
vt -6 17
vt -14 6
vt 14 6
vt -14 3
vt 14 3
vt 14 -6
vt -14 -6
vt 14 -3
vt -14 -3

g Wall (2)
usemtl Default_Prototype
f 75/75/75 76/76/76 74/74/74 73/73/73
f 79/79/79 80/80/80 78/78/78 77/77/77
f 83/83/83 84/84/84 82/82/82 81/81/81
f 87/87/87 88/88/88 86/86/86 85/85/85
f 91/91/91 92/92/92 90/90/90 89/89/89
f 95/95/95 96/96/96 94/94/94 93/93/93

g Cube (4)
v -2 -38 101.5
v -4 -38 101.5
v -2 -30 101.5
v -4 -30 101.5
v -4 -38 101.5
v -4 -38 99.50002
v -4 -30 101.5
v -4 -30 99.50002
v -4 -38 99.50002
v -2 -38 99.50002
v -4 -30 99.50002
v -2 -30 99.50002
v -2 -38 99.50002
v -2 -38 101.5
v -2 -30 99.50002
v -2 -30 101.5
v -2 -30 101.5
v -4 -30 101.5
v -2 -30 99.50002
v -4 -30 99.50002
v -2 -38 99.50002
v -4 -38 99.50002
v -2 -38 101.5
v -4 -38 101.5

vn 0 0 1
vn 0 0 1
vn 0 0 1
vn 0 0 1
vn -1 0 0
vn -1 0 0
vn -1 0 0
vn -1 0 0
vn 0 0 -1
vn 0 0 -1
vn 0 0 -1
vn 0 0 -1
vn 1 0 0
vn 1 0 0
vn 1 0 0
vn 1 0 0
vn 0 1 0
vn 0 1 0
vn 0 1 0
vn 0 1 0
vn 0 -1 0
vn 0 -1 0
vn 0 -1 0
vn 0 -1 0

vt 1 -4
vt -1 -4
vt 1 4
vt -1 4
vt 1 -4
vt -1 -4
vt 1 4
vt -1 4
vt 1 -4
vt -1 -4
vt 1 4
vt -1 4
vt 1 -4
vt -1 -4
vt 1 4
vt -1 4
vt -1 1
vt 1 1
vt -1 -1
vt 1 -1
vt 1 -1
vt -1 -1
vt 1 1
vt -1 1

g Cube (4)
usemtl Default_Prototype
f 99/99/99 100/100/100 98/98/98 97/97/97
f 103/103/103 104/104/104 102/102/102 101/101/101
f 107/107/107 108/108/108 106/106/106 105/105/105
f 111/111/111 112/112/112 110/110/110 109/109/109
f 115/115/115 116/116/116 114/114/114 113/113/113
f 119/119/119 120/120/120 118/118/118 117/117/117

g Cube (5)
v 0 -38 139.5
v -32 -38 139.5
v 0 -37 139.5
v -32 -37 139.5
v -32 -38 139.5
v -32 -38 87.5
v -32 -37 139.5
v -32 -37 87.5
v -32 -38 87.5
v 0 -38 87.5
v -32 -37 87.5
v 0 -37 87.5
v 0 -38 87.5
v 0 -38 139.5
v 0 -37 87.5
v 0 -37 139.5
v 0 -37 139.5
v -32 -37 139.5
v 0 -37 87.5
v -32 -37 87.5
v 0 -38 87.5
v -32 -38 87.5
v 0 -38 139.5
v -32 -38 139.5

vn 0 0 1
vn 0 0 1
vn 0 0 1
vn 0 0 1
vn -1 0 0
vn -1 0 0
vn -1 0 0
vn -1 0 0
vn 0 0 -1
vn 0 0 -1
vn 0 0 -1
vn 0 0 -1
vn 1 0 0
vn 1 0 0
vn 1 0 0
vn 1 0 0
vn 0 1 0
vn 0 1 0
vn 0 1 0
vn 0 1 0
vn 0 -1 0
vn 0 -1 0
vn 0 -1 0
vn 0 -1 0

vt 16 -0.5
vt -16 -0.5
vt 16 0.5
vt -16 0.5
vt 26 -0.5
vt -26 -0.5
vt 26 0.5
vt -26 0.5
vt 16 -0.5
vt -16 -0.5
vt 16 0.5
vt -16 0.5
vt 26 -0.5
vt -26 -0.5
vt 26 0.5
vt -26 0.5
vt -16 26
vt 16 26
vt -16 -26
vt 16 -26
vt 16 -26
vt -16 -26
vt 16 26
vt -16 26

g Cube (5)
usemtl Default_Prototype
f 123/123/123 124/124/124 122/122/122 121/121/121
f 127/127/127 128/128/128 126/126/126 125/125/125
f 131/131/131 132/132/132 130/130/130 129/129/129
f 135/135/135 136/136/136 134/134/134 133/133/133
f 139/139/139 140/140/140 138/138/138 137/137/137
f 143/143/143 144/144/144 142/142/142 141/141/141

g Cube (6)
v -2 -37.94873 142.5
v -4 -37.94873 142.5
v -2 -34 142.5
v -4 -34 142.5
v -4 -37.94873 130.5
v -4 -37.94873 129.5
v -4 -29.94873 130.5
v -4 -29.94873 129.5
v -4 -37.94873 129.5
v -2 -37.94873 129.5
v -4 -29.94873 129.5
v -2 -29.94873 129.5
v -2 -37.94873 129.5
v -2 -37.94873 130.5
v -2 -29.94873 129.5
v -2 -29.94873 130.5
v -2 -29.94873 130.5
v -4 -29.94873 130.5
v -2 -29.94873 129.5
v -4 -29.94873 129.5
v -2 -37.94873 129.5
v -4 -37.94873 129.5
v -2 -37.94873 130.5
v -4 -37.94873 130.5
v -2 -37.94873 130.5
v -4 -37.94873 130.5
v -2 -37.94873 142.5
v -4 -37.94873 142.5
v -2 -29.94873 130.5
v -2 -37.94873 130.5
v -2 -34 142.5
v -2 -37.94873 142.5
v -4 -37.94873 130.5
v -4 -29.94873 130.5
v -4 -37.94873 142.5
v -4 -34 142.5
v -4 -29.94873 130.5
v -2 -29.94873 130.5
v -4 -34 142.5
v -2 -34 142.5

vn 0 0 1
vn 0 0 1
vn 0 0 1
vn 0 0 1
vn -1 0 0
vn -1 0 0
vn -1 0 0
vn -1 0 0
vn 0 0 -1
vn 0 0 -1
vn 0 0 -1
vn 0 0 -1
vn 1 0 0
vn 1 0 0
vn 1 0 0
vn 1 0 0
vn 0 1 0
vn 0 1 0
vn 0 1 0
vn 0 1 0
vn 0 -1 0
vn 0 -1 0
vn 0 -1 0
vn 0 -1 0
vn 0 -1 0
vn 0 -1 0
vn 0 -1 0
vn 0 -1 0
vn 1 0 0
vn 1 0 0
vn 1 0 0
vn 1 0 0
vn -1 0 0
vn -1 0 0
vn -1 0 0
vn -1 0 0
vn 0 0.9474618 0.3198689
vn 0 0.9474618 0.3198689
vn 0 0.9474618 0.3198689
vn 0 0.9474618 0.3198689

vt 1 -4
vt -1 -4
vt 1 -0.05127335
vt -1 -0.05127335
vt -5.5 -4
vt -6.5 -4
vt -5.5 4
vt -6.5 4
vt 1 -4
vt -1 -4
vt 1 4
vt -1 4
vt 6.5 -4
vt 5.5 -4
vt 6.5 4
vt 5.5 4
vt -1 -5.5
vt 1 -5.5
vt -1 -6.5
vt 1 -6.5
vt 1 -6.5
vt -1 -6.5
vt 1 -5.5
vt -1 -5.5
vt 1 -5.5
vt -1 -5.5
vt 1 6.5
vt -1 6.5
vt 5.5 4
vt 5.5 -4
vt -6.5 -0.05127335
vt -6.5 -4
vt -5.5 -4
vt -5.5 4
vt 6.5 -4
vt 6.5 -0.05127335
vt 1 -6.490516
vt -1 -6.490516
vt 1 6.174903
vt -1 6.174903

g Cube (6)
usemtl Default_Prototype
f 147/147/147 148/148/148 146/146/146 145/145/145
f 151/151/151 152/152/152 150/150/150 149/149/149
f 155/155/155 156/156/156 154/154/154 153/153/153
f 159/159/159 160/160/160 158/158/158 157/157/157
f 163/163/163 164/164/164 162/162/162 161/161/161
f 167/167/167 168/168/168 166/166/166 165/165/165
f 171/171/171 172/172/172 170/170/170 169/169/169
f 175/175/175 176/176/176 174/174/174 173/173/173
f 179/179/179 180/180/180 178/178/178 177/177/177
f 183/183/183 184/184/184 182/182/182 181/181/181

g Cube (7)
v -13 -38 142.5
v -15 -38 142.5
v -13 -34 142.5
v -15 -34 142.5
v -30 -38 102.5
v -30 -38 99.5
v -30 -30 102.5
v -30 -30 99.5
v -30 -38 99.5
v -28 -38 99.5
v -30 -30 99.5
v -28 -30 99.5
v -28 -38 99.5
v -28 -38 102.5
v -28 -30 99.5
v -28 -30 102.5
v -28 -30 102.5
v -30 -30 102.5
v -28 -30 99.5
v -30 -30 99.5
v -28 -38 99.5
v -30 -38 99.5
v -28 -38 102.5
v -30 -38 102.5
v -28 -38 102.5
v -30 -38 102.5
v -13 -38 130.5
v -15 -38 130.5
v -28 -30 102.5
v -28 -38 102.5
v -13 -30 130.5
v -13 -38 130.5
v -30 -38 102.5
v -30 -30 102.5
v -15 -38 130.5
v -15 -30 130.5
v -30 -30 102.5
v -28 -30 102.5
v -15 -30 130.5
v -13 -30 130.5
v -13 -38 130.5
v -15 -38 130.5
v -13 -38 142.5
v -15 -38 142.5
v -13 -30 130.5
v -13 -38 130.5
v -13 -34 142.5
v -13 -38 142.5
v -15 -38 130.5
v -15 -30 130.5
v -15 -38 142.5
v -15 -34 142.5
v -15 -30 130.5
v -13 -30 130.5
v -15 -34 142.5
v -13 -34 142.5

vn 0 0 1
vn 0 0 1
vn 0 0 1
vn 0 0 1
vn -1 0 0
vn -1 0 0
vn -1 0 0
vn -1 0 0
vn 0 0 -1
vn 0 0 -1
vn 0 0 -1
vn 0 0 -1
vn 1 0 0
vn 1 0 0
vn 1 0 0
vn 1 0 0
vn 0 1 0
vn 0 1 0
vn 0 1 0
vn 0 1 0
vn 0 -1 0
vn 0 -1 0
vn 0 -1 0
vn 0 -1 0
vn 0 -1 0
vn 0 -1 0
vn 0 -1 0
vn 0 -1 0
vn 0.8814799 0 -0.4722214
vn 0.8814799 0 -0.4722214
vn 0.8814799 0 -0.4722214
vn 0.8814799 0 -0.4722214
vn -0.8814799 0 0.4722214
vn -0.8814799 0 0.4722214
vn -0.8814799 0 0.4722214
vn -0.8814799 0 0.4722214
vn 0 1 0
vn 0 1 0
vn 0 1 0
vn 0 1 0
vn 0 -1 0
vn 0 -1 0
vn 0 -1 0
vn 0 -1 0
vn 1 0 0
vn 1 0 0
vn 1 0 0
vn 1 0 0
vn -1 0 0
vn -1 0 0
vn -1 0 0
vn -1 0 0
vn 0 0.9486833 0.3162278
vn 0 0.9486833 0.3162278
vn 0 0.9486833 0.3162278
vn 0 0.9486833 0.3162278

vt 8.5 -4
vt 6.5 -4
vt 8.5 0
vt 6.5 0
vt -18.5 -4
vt -21.5 -4
vt -18.5 4
vt -21.5 4
vt 8.5 -4
vt 6.5 -4
vt 8.5 4
vt 6.5 4
vt 21.5 -4
vt 18.5 -4
vt 21.5 4
vt 18.5 4
vt 6.5 -18.5
vt 8.5 -18.5
vt 6.5 -21.5
vt 8.5 -21.5
vt -6.5 -21.5
vt -8.5 -21.5
vt -6.5 -18.5
vt -8.5 -18.5
vt -6.5 -18.5
vt -8.5 -18.5
vt 8.5 9.5
vt 6.5 9.5
vt 19.37682 4
vt 19.37682 -4
vt -12.38794 4
vt -12.38794 -4
vt -20.32126 -4
vt -20.32126 4
vt 11.4435 -4
vt 11.4435 4
vt 8.5 -18.5
vt 6.5 -18.5
vt -6.5 9.5
vt -8.5 9.5
vt 8.5 9.5
vt 6.5 9.5
vt 8.5 21.5
vt 6.5 21.5
vt -9.5 4
vt -9.5 -4
vt -21.5 0
vt -21.5 -4
vt 9.5 -4
vt 9.5 4
vt 21.5 -4
vt 21.5 0
vt -6.5 7.747581
vt -8.5 7.747581
vt -6.5 20.39669
vt -8.5 20.39669

g Cube (7)
usemtl Default_Prototype
f 187/187/187 188/188/188 186/186/186 185/185/185
f 191/191/191 192/192/192 190/190/190 189/189/189
f 195/195/195 196/196/196 194/194/194 193/193/193
f 199/199/199 200/200/200 198/198/198 197/197/197
f 203/203/203 204/204/204 202/202/202 201/201/201
f 207/207/207 208/208/208 206/206/206 205/205/205
f 211/211/211 212/212/212 210/210/210 209/209/209
f 215/215/215 216/216/216 214/214/214 213/213/213
f 219/219/219 220/220/220 218/218/218 217/217/217
f 223/223/223 224/224/224 222/222/222 221/221/221
f 227/227/227 228/228/228 226/226/226 225/225/225
f 231/231/231 232/232/232 230/230/230 229/229/229
f 235/235/235 236/236/236 234/234/234 233/233/233
f 239/239/239 240/240/240 238/238/238 237/237/237

